<svg xmlns="http://www.w3.org/2000/svg" viewBox="0 0 28 7" class="Amex__AmexSC-sc-pc9hm-0 cYHQLZ">
    <g fill="none" fill-rule="evenodd" stroke="none" stroke-width="1">
    <g fill="#0072AD" transform="translate(-142 -962)"><g><g>
    <g transform="translate(0 787)"><g transform="translate(44 171)">
    <g transform="translate(98)"><g><g fill-rule="nonzero">
    <path d="M13.608.311h-.76l-1.73 3.686L9.39.311H7.085v4.877L4.872.31h-2.19L.17 6.09h1.717l.519-1.283h2.697l.541 1.283h2.882v-4.16l1.924 4.16h1.395l1.763-3.813v3.813h1.544V.31h-1.544zM2.948 3.49L3.73 1.57l.819 1.918H2.948zM27.83.311h-2.028l-1.637 1.733L22.563.311h-6.35V6.09h6.223l1.694-1.814 1.66 1.814h2.04L25.168 3.2 27.83.311zm-6.915 5.2V4.76h-3.227v-.913h3.227V2.541h-3.227v-.913h3.227V.75l2.224 2.45-2.224 2.311z" transform="translate(0 4.5)"></path>
    </g></g></g></g></g></g></g></g></g>
</svg>