<svg xmlns="http://www.w3.org/2000/svg" width="40" height="40" viewBox="0 0 40 40"><g fill="none" fill-rule="evenodd" stroke="none" stroke-width="1"><g transform="translate(-132 -707)"><g><g><g transform="translate(132 707)"><g><path fill="#221E20" d="M8 0h24a8 8 0 018 8v24a8 8 0 01-8 8H8a8 8 0 01-8-8V8a8 8 0 018-8z"></path><g fill="#FFF" transform="translate(7 15)"><g fill-rule="nonzero"><path d="M0 10L0 0 5.22865854 0 5.22865854 1.68992586 1.90984321 1.68992586 1.90984321 3.98822503 4.44033101 3.98822503 4.44033101 5.67815089 1.90984321 5.67815089 1.90984321 8.31007414 5.36585366 8.31007414 5.36585366 10z"></path><path d="M8.04878049 10L8.04878049 0 10.1269578 0 12.7685617 5.92891409 12.796733 5.92891409 12.796733 0 14.5325203 0 14.5325203 10 12.7143861 10 9.81057209 3.54557348 9.78240077 3.54557348 9.78240077 10z"></path><path d="M19.54 8.306h.642c1.034 0 1.631-.499 1.631-1.994V3.684c0-1.413-.462-1.995-1.63-1.995h-.643v6.617zM17.663 0h2.611c2.14 0 3.346.942 3.425 3.461V6.54C23.618 9.059 22.415 10 20.274 10h-2.611V0z"></path><path d="M25.4878049 8L27.5 8 27.5 10 25.4878049 10z"></path></g></g></g></g></g></g></g></g></svg>