<svg width="40" height="40" viewBox="0 0 40 40" xmlns="http://www.w3.org/2000/svg"><g fill="none" fill-rule="evenodd"><path d="M32 .25c2.14 0 4.078.867 5.48 2.27A7.726 7.726 0 0139.75 8h0v24c0 2.14-.867 4.078-2.27 5.48A7.726 7.726 0 0132 39.75h0H8a7.726 7.726 0 01-5.48-2.27A7.726 7.726 0 01.25 32h0V8c0-2.14.867-4.078 2.27-5.48A7.726 7.726 0 018 .25h0z" stroke="#979797" stroke-width=".5" fill="#FFF"></path><path d="M30 12a2 2 0 012 2v12a2 2 0 01-2 2H10a2 2 0 01-2-2V14a2 2 0 012-2h20zm1 7H9v7a1 1 0 00.883.993L10 27h20a1 1 0 00.993-.883L31 26v-7zm-9 5v1H11v-1h11zm5 0v1h-3v-1h3zm3-11H10a1 1 0 00-.993.883L9 14v2h22v-2a1 1 0 00-.883-.993L30 13z" fill="#1A1A1A" fill-rule="nonzero"></path></g></svg>