<svg xmlns="http://www.w3.org/2000/svg" viewBox="0 0 19 16" class="JCB__JCBSC-sc-16dgsnf-0 dTMonJ">
    <defs>
        <linearGradient id="linearGradient-1" x1="-57.527%" x2="232.391%" y1="50.124%" y2="50.124%"><stop offset="0%" stop-color="#007940">
            </stop>
            <stop offset="22.85%" stop-color="#00873F"></stop>
            <stop offset="74.33%" stop-color="#40A737"></stop>
            <stop offset="100%" stop-color="#5CB531"></stop>
        </linearGradient>
        <linearGradient id="linearGradient-2" x1=".183%" x2="100.273%" y1="49.96%" y2="49.96%">
            <stop offset="0%" stop-color="#007940"></stop><stop offset="22.85%" stop-color="#00873F"></stop>
            <stop offset="74.33%" stop-color="#40A737"></stop><stop offset="100%" stop-color="#5CB531"></stop>
        </linearGradient>
        <linearGradient id="linearGradient-3" x1="-62.802%" x2="253.671%" y1="49.858%" y2="49.858%">
            <stop offset="0%" stop-color="#007940"></stop><stop offset="22.85%" stop-color="#00873F"></stop>
            <stop offset="74.33%" stop-color="#40A737"></stop><stop offset="100%" stop-color="#5CB531"></stop>
        </linearGradient><linearGradient id="linearGradient-4" x1=".176%" x2="101.808%" y1="50.006%" y2="50.006%">
        <stop offset="0%" stop-color="#1F286F"></stop><stop offset="47.51%" stop-color="#004E94">
        </stop><stop offset="82.61%" stop-color="#0066B1"></stop><stop offset="100%" stop-color="#006FBC">
        </stop></linearGradient><linearGradient id="linearGradient-5" x1="-.576%" x2="98.133%" y1="49.914%" y2="49.914%">
        <stop offset="0%" stop-color="#6C2C2F"></stop><stop offset="17.35%" stop-color="#882730"></stop>
        <stop offset="57.31%" stop-color="#BE1833"></stop><stop offset="85.85%" stop-color="#DC0436"></stop>
        <stop offset="100%" stop-color="#E60039"></stop></linearGradient>
    </defs>
    <g fill="none" fill-rule="evenodd" stroke="none" stroke-width="1">
    <g transform="translate(-253 -958)"><g><g><g transform="translate(0 787)">
    <g transform="translate(44 171)"><g transform="translate(209)"><g>
    <g fill-rule="nonzero" transform="translate(0 .8)">
    <path fill="#FFF" d="M18.657 11.473a2.9 2.9 0 01-2.896 2.896H0V2.897A2.9 2.9 0 012.897 0h15.76v11.473z"></path>
    <g transform="translate(12.5 .947)">
        <path fill="url(#linearGradient-1)" d="M1.026 7.584h1.198c.034 0 .114-.012.148-.012a.534.534 0 00.422-.536.554.554 0 00-.422-.536c-.034-.011-.103-.011-.148-.011H1.026v1.095z"></path>
        <path fill="url(#linearGradient-2)" d="M2.087.023C.947.023.011.947.011 2.098v2.156h2.931c.069 0 .149 0 .206.011.661.034 1.151.377 1.151.97 0 .467-.33.866-.946.946v.023c.673.046 1.186.422 1.186 1.004 0 .627-.57 1.037-1.323 1.037H0v4.22h3.045c1.14 0 2.076-.924 2.076-2.076V.023H2.087z"></path>
        <path fill="url(#linearGradient-3)" d="M2.646 5.371a.485.485 0 00-.422-.49c-.023 0-.08-.011-.114-.011H1.026v1.003H2.11c.034 0 .102 0 .114-.011a.485.485 0 00.422-.49z"></path>
    </g>
    <path fill="url(#linearGradient-4)" d="M3.113.97c-1.14 0-2.075.923-2.075 2.075v5.12c.581.286 1.186.468 1.79.468.719 0 1.106-.433 1.106-1.026V5.189h1.78v2.406c0 .935-.582 1.7-2.555 1.7-1.197 0-2.133-.263-2.133-.263V13.4h3.045c1.14 0 2.076-.924 2.076-2.076V.97H3.113z"></path>
    <path fill="url(#linearGradient-5)" d="M8.85.97c-1.14 0-2.076.923-2.076 2.075v2.714c.525-.445 1.437-.73 2.908-.661.787.034 1.631.25 1.631.25v.879a3.948 3.948 0 00-1.574-.456c-1.117-.08-1.79.467-1.79 1.425 0 .97.673 1.517 1.79 1.426.65-.046 1.152-.251 1.574-.457v.879s-.832.216-1.63.25c-1.472.069-2.384-.216-2.909-.661v4.79H9.82c1.14 0 2.076-.924 2.076-2.076V.97H8.85z">
    </path></g></g></g></g></g></g></g></g></g>
</svg>