<svg xmlns="http://www.w3.org/2000/svg" width="14" height="20" viewBox="0 0 14 16" fill="none" data-test-id="LockIcon"><path fill-rule="evenodd" clip-rule="evenodd" d="M9.92654 4.33289V3.71392C9.92654 2.21486 8.71131 0.999634 7.21225 0.999634C5.71319 0.999634 4.49797 2.21486 4.49797 3.71392V4.33289H9.92654ZM7.21225 -0.000366211C5.16091 -0.000366211 3.49797 1.66258 3.49797 3.71392V4.33289V4.44495H1.7124H0.712402V5.44495V15.0003V16.0003H1.7124H12.7124H13.7124V15.0003V5.44495V4.44495H12.7124H10.9265V4.33289V3.71392C10.9265 1.66258 9.26359 -0.000366211 7.21225 -0.000366211ZM12.7124 5.44495H1.7124V15.0003H12.7124V5.44495ZM8.7124 9.49963C8.7124 10.1527 8.295 10.7084 7.7124 10.9143V12.9996H6.7124V10.9143C6.12981 10.7084 5.7124 10.1527 5.7124 9.49963C5.7124 8.67121 6.38398 7.99963 7.2124 7.99963C8.04083 7.99963 8.7124 8.67121 8.7124 9.49963Z" fill="white"></path></svg>