<svg xmlns="http://www.w3.org/2000/svg" viewBox="0 0 20 12" class="Mastercard__MastercardSC-sc-ujxj1y-0 iYMzpH">
    <g fill="none" fill-rule="evenodd" stroke="none" stroke-width="1">
    <g transform="translate(-98 -960)"><g><g>
    <g transform="translate(0 787)"><g transform="translate(44 171)">
    <g transform="translate(54)"><g>
    <g fill-rule="nonzero" transform="translate(0 1.6)">
    <path fill="#F79E1B" d="M19.881 6.4c-.002 2.415-1.456 4.577-3.651 5.43-2.196.855-4.676.222-6.23-1.588 1.884-2.19 1.884-5.482 0-7.672C11.552.762 14.03.13 16.224.98c2.195.85 3.65 3.007 3.657 5.42z"></path><path fill="#FF5F00" d="M11.415 6.4A5.91 5.91 0 0110 10.242C8.116 8.052 8.116 4.76 10 2.57a5.91 5.91 0 011.415 3.83z"></path><path fill="#EB001B" d="M8.585 6.4A5.91 5.91 0 0010 10.242c-1.552 1.817-4.035 2.456-6.235 1.602-2.2-.853-3.656-3.019-3.656-5.438 0-2.419 1.456-4.585 3.656-5.438C5.965.115 8.448.753 10 2.57A5.91 5.91 0 008.585 6.4z"></path>
    </g></g></g></g></g></g></g></g></g>
</svg>