<svg xmlns="http://www.w3.org/2000/svg" width="34" height="10" viewBox="0 0 34 10">
    <g fill="none" fill-rule="evenodd" stroke="none" stroke-width="1">
    <g transform="translate(-194 -961)"><g><g><g transform="translate(0 787)">
    <g transform="translate(44 171)"><g transform="translate(150)"><g>
    <g fill-rule="nonzero">
    <path fill="#253B80" d="M6.038 1.3A2.31 2.31 0 004.144.611H1.572a.369.369 0 00-.351.325L.155 7.8a.24.24 0 00.056.183c.044.05.105.077.17.077h1.254a.366.366 0 00.339-.26l.288-1.872a.344.344 0 01.339-.325h.815a2.597 2.597 0 002.016-.64 2.794 2.794 0 00.932-1.96A2.1 2.1 0 006.038 1.3zM4.445 3.107c-.138.975-.853.975-1.53.975h-.39l.264-1.807a.23.23 0 01.213-.208h.176c.464 0 .903 0 1.129.273.156.22.207.503.138.767zM11.896 3.068H10.64a.24.24 0 00-.226.182v.364l-.087-.143a1.733 1.733 0 00-1.455-.546c-1.419.034-2.599 1.14-2.773 2.6a2.511 2.511 0 00.465 1.989c.397.456.976.696 1.567.65a2.318 2.318 0 001.719-.741V7.8a.24.24 0 00.057.17c.04.046.096.074.156.077h1.117a.355.355 0 00.35-.312l.666-4.433a.225.225 0 00-.083-.21.207.207 0 00-.218-.024zM8.772 6.825a1.022 1.022 0 01-.828-.338 1.164 1.164 0 01-.188-.91c.07-.736.667-1.297 1.38-1.3.313-.016.616.112.828.351.2.254.28.589.213.91-.072.749-.692 1.311-1.417 1.287h.012zM18.493 3.068H17.24a.36.36 0 00-.301.169l-1.718 2.6-.728-2.6a.366.366 0 00-.351-.273h-1.255a.211.211 0 00-.176.095.228.228 0 00-.024.204l1.367 4.199-1.254 1.898a.228.228 0 00-.017.232c.037.074.111.12.192.12h1.255a.36.36 0 00.3-.157l4.14-6.24a.22.22 0 00-.176-.247z" transform="translate(.2 3)"></path>
    <path fill="#179BD7" d="M24.502 1.3a2.322 2.322 0 00-1.894-.689h-2.584a.357.357 0 00-.339.325L18.619 7.8a.24.24 0 00.056.183c.044.05.105.077.17.077h1.33a.255.255 0 00.238-.234l.3-1.963a.369.369 0 01.352-.325h.815a2.597 2.597 0 002.015-.64 2.794 2.794 0 00.933-1.96 2.154 2.154 0 00-.326-1.638zm-1.593 1.833c-.138.975-.853.975-1.53.975h-.39l.264-1.807a.216.216 0 01.226-.195h.175c.464 0 .903 0 1.13.273.14.213.186.478.125.728v.026zM30.36 3.068h-1.255a.227.227 0 00-.226.182v.364l-.087-.143a1.733 1.733 0 00-1.456-.546c-1.418.034-2.598 1.14-2.772 2.6a2.511 2.511 0 00.465 1.989c.397.456.976.696 1.567.65a2.318 2.318 0 001.719-.741V7.8a.226.226 0 00.053.173c.04.048.099.074.16.074h1.116a.355.355 0 00.352-.312l.602-4.407a.226.226 0 00-.055-.193.209.209 0 00-.184-.067zm-3.124 3.757a1.01 1.01 0 01-.828-.338 1.164 1.164 0 01-.188-.91c.065-.739.664-1.303 1.38-1.3.312-.016.616.112.828.351.194.257.272.589.213.91-.072.744-.684 1.304-1.405 1.287zM33.232.572h-1.254c-.11 0-.2.083-.214.195L30.761 7.8a.227.227 0 00.047.182.21.21 0 00.166.078h1.066a.368.368 0 00.352-.312L33.445.819a.226.226 0 00-.053-.173.21.21 0 00-.16-.074z" transform="translate(.2 3)"></path></g></g></g></g></g></g></g></g></g>
</svg>