<svg width="21" height="13" viewBox="0 0 21 13" fill="none" xmlns="http://www.w3.org/2000/svg" aria-labelledby="DeliveryVanTitle"><title id="DeliveryVanTitle">Delivery Van</title><path d="M20 5.10636V10.5071H1V0.507074L13.5 0.506957H13.5L13.8692 0.506935C14.784 0.506879 15.6624 0.864944 16.3164 1.50447L20 5.10636Z" fill="#F5FAF7" stroke="#258A3E"></path><path d="M13.5 5.14551H13V5.64551H13.5V5.14551ZM19.5 5.64551C19.7761 5.64551 20 5.42165 20 5.14551C20 4.86937 19.7761 4.64551 19.5 4.64551V5.64551ZM13 0.145508V5.14551H14V0.145508H13ZM13.5 5.64551H19.5V4.64551H13.5V5.64551Z" fill="#258A3E"></path><rect x="4" y="7.9668" width="4" height="4" rx="2" fill="#E9F3EC" stroke="#258A3E"></rect><rect x="13" y="7.99365" width="4" height="4" rx="2" fill="#E9F3EC" stroke="#258A3E"></rect></svg>